<?xml version="1.0" encoding="UTF-8" standalone="no"?>
<!-- Created with Inkscape (http://www.inkscape.org/) -->

<svg
   xmlns:dc="http://purl.org/dc/elements/1.1/"
   xmlns:cc="http://creativecommons.org/ns#"
   xmlns:rdf="http://www.w3.org/1999/02/22-rdf-syntax-ns#"
   xmlns:svg="http://www.w3.org/2000/svg"
   xmlns="http://www.w3.org/2000/svg"
   xmlns:sodipodi="http://sodipodi.sourceforge.net/DTD/sodipodi-0.dtd"
   xmlns:inkscape="http://www.inkscape.org/namespaces/inkscape"
   width="306.71423mm"
   height="102.07057mm"
   viewBox="0 0 306.71423 102.07057"
   version="1.1"
   id="svg8"
   inkscape:export-filename="/home/qba/Qooba/Docker/AIScissors/images/bitmap.png"
   inkscape:export-xdpi="41.41"
   inkscape:export-ydpi="41.41"
   inkscape:version="0.92.3 (2405546, 2018-03-11)"
   sodipodi:docname="drawing.svg">
  <defs
     id="defs2" />
  <sodipodi:namedview
     id="base"
     pagecolor="#ffffff"
     bordercolor="#666666"
     borderopacity="1.0"
     inkscape:pageopacity="0.0"
     inkscape:pageshadow="2"
     inkscape:zoom="0.35"
     inkscape:cx="480.27813"
     inkscape:cy="44.35067"
     inkscape:document-units="mm"
     inkscape:current-layer="layer1"
     showgrid="false"
     fit-margin-top="0"
     fit-margin-left="0"
     fit-margin-right="0"
     fit-margin-bottom="0"
     inkscape:window-width="1533"
     inkscape:window-height="845"
     inkscape:window-x="0"
     inkscape:window-y="27"
     inkscape:window-maximized="1" />
  <metadata
     id="metadata5">
    <rdf:RDF>
      <cc:Work
         rdf:about="">
        <dc:format>image/svg+xml</dc:format>
        <dc:type
           rdf:resource="http://purl.org/dc/dcmitype/StillImage" />
        <dc:title></dc:title>
      </cc:Work>
    </rdf:RDF>
  </metadata>
  <g
     inkscape:label="Layer 1"
     inkscape:groupmode="layer"
     id="layer1"
     transform="translate(-131.17142,-20.112994)">
    <g
       id="g829"
       transform="matrix(0.00647057,-0.2645042,0.2645042,0.00647057,74.313419,193.83065)">
      <path
         id="path815"
         d="m 501.04,395.46 c 40.116,-55.305 48.782,-95.726 62.369,-91.858 10.62,3.0236 5.5161,12.113 33.582,18.526 26.948,6.1574 54.481,-15.967 60.201,-42.659 7.619,-26.163 -4.7303,-59.047 -32.358,-67.165 -27.341,-9.895 -59.929,6.1886 -69.658,33.419 -14.096,31.13 -21.324,72.244 -66.88,107.53 l -34.967,27.086 -121.01,170.84 c -13.53,22.088 -21.654,51.472 -4.1117,79.445 l 172.83,-235.17 z M 630.86,292.34 c -23.306,23.25 -64.534,9.0706 -64.463,-21.965 -1.6504,-28.554 33.055,-54.558 58.852,-38.26 21.721,11.428 21.565,44.309 5.611,60.225 z"
         inkscape:connector-curvature="0"
         style="stroke:#000000;stroke-width:7.54059982" />
      <path
         id="path817"
         d="m 439.23,396.97 c -39.993,-55.395 -48.569,-95.834 -62.164,-91.996 -10.627,3 -5.5431,12.1 -33.624,18.451 -26.962,6.0974 -54.445,-16.088 -60.106,-42.794 -7.5602,-26.179 4.8623,-59.036 32.508,-67.092 27.363,-9.8341 59.916,6.322 69.583,33.574 14.026,31.161 21.163,72.292 66.641,107.68 l 34.907,27.164 120.63,171.11 c 13.481,22.118 21.54,51.52 3.935,79.454 L 439.23,396.971 Z M 309.64,293.56 c 23.254,23.302 64.513,9.2144 64.512,-21.821 1.7144,-28.55 -32.933,-54.632 -58.766,-38.391 -21.746,11.38 -21.664,44.261 -5.7452,60.212 z"
         inkscape:connector-curvature="0"
         style="stroke:#000000;stroke-width:7.54059982" />
    </g>
    <text
       xml:space="preserve"
       style="font-style:italic;font-variant:normal;font-weight:bold;font-stretch:normal;font-size:50.79999924px;line-height:1.25;font-family:Bangers;-inkscape-font-specification:'Bangers Bold Italic';letter-spacing:0px;word-spacing:0px;fill:#000000;fill-opacity:1;stroke:none;stroke-width:0.26458332"
       x="219.79315"
       y="88.546127"
       id="text833"><tspan
         sodipodi:role="line"
         id="tspan831"
         x="219.79315"
         y="88.546127"
         style="font-style:italic;font-variant:normal;font-weight:bold;font-stretch:normal;font-family:Bangers;-inkscape-font-specification:'Bangers Bold Italic';stroke-width:0.26458332">AI SCISSORS</tspan></text>
  </g>
</svg>
